<svg width="42" height="42" viewBox="0 0 42 42" fill="none" xmlns="http://www.w3.org/2000/svg">
<path fill-rule="evenodd" clip-rule="evenodd" d="M12.0196 30.1292C12.1398 30.0087 12.2825 29.9131 12.4397 29.8479C12.5968 29.7827 12.7653 29.7491 12.9354 29.7491C13.1056 29.7491 13.2741 29.7827 13.4312 29.8479C13.5884 29.9131 13.7311 30.0087 13.8513 30.1292L20.6967 36.9772L27.5422 30.1292C27.785 29.8863 28.1145 29.7498 28.458 29.7498C28.8015 29.7498 29.1309 29.8863 29.3738 30.1292C29.6167 30.3721 29.7532 30.7015 29.7532 31.045C29.7532 31.3885 29.6167 31.7179 29.3738 31.9608L21.6125 39.7221C21.4924 39.8426 21.3496 39.9381 21.1925 40.0034C21.0353 40.0686 20.8669 40.1021 20.6967 40.1021C20.5266 40.1021 20.3581 40.0686 20.2009 40.0034C20.0438 39.9381 19.901 39.8426 19.7809 39.7221L12.0196 31.9608C11.8992 31.8407 11.8036 31.6979 11.7384 31.5408C11.6732 31.3836 11.6396 31.2151 11.6396 31.045C11.6396 30.8749 11.6732 30.7064 11.7384 30.5492C11.8036 30.3921 11.8992 30.2493 12.0196 30.1292Z" fill="white"/>
<path fill-rule="evenodd" clip-rule="evenodd" d="M20.6967 11.6418C21.0398 11.6418 21.3688 11.7781 21.6114 12.0207C21.854 12.2633 21.9903 12.5923 21.9903 12.9354V36.2192C21.9903 36.5623 21.854 36.8913 21.6114 37.1339C21.3688 37.3765 21.0398 37.5127 20.6967 37.5127C20.3537 37.5127 20.0247 37.3765 19.7821 37.1339C19.5395 36.8913 19.4032 36.5623 19.4032 36.2192V12.9354C19.4032 12.5923 19.5395 12.2633 19.7821 12.0207C20.0247 11.7781 20.3537 11.6418 20.6967 11.6418Z" fill="white"/>
<path fill-rule="evenodd" clip-rule="evenodd" d="M6.46771 5.17415C6.46771 4.14494 6.87656 3.15789 7.60432 2.43013C8.33208 1.70237 9.31914 1.29352 10.3483 1.29352H31.0451C32.0743 1.29352 33.0613 1.70237 33.7891 2.43013C34.5169 3.15789 34.9257 4.14494 34.9257 5.17415V23.2838C34.9257 24.313 34.5169 25.3 33.7891 26.0278C33.0613 26.7556 32.0743 27.1644 31.0451 27.1644H27.1644C26.8214 27.1644 26.4923 27.0281 26.2498 26.7855C26.0072 26.543 25.8709 26.2139 25.8709 25.8709C25.8709 25.5278 26.0072 25.1988 26.2498 24.9562C26.4923 24.7136 26.8214 24.5773 27.1644 24.5773H31.0451C31.3881 24.5773 31.7172 24.441 31.9597 24.1985C32.2023 23.9559 32.3386 23.6269 32.3386 23.2838V5.17415C32.3386 4.83108 32.2023 4.50207 31.9597 4.25948C31.7172 4.01689 31.3881 3.88061 31.0451 3.88061H10.3483C10.0053 3.88061 9.67626 4.01689 9.43367 4.25948C9.19109 4.50207 9.0548 4.83108 9.0548 5.17415V23.2838C9.0548 23.6269 9.19109 23.9559 9.43367 24.1985C9.67626 24.441 10.0053 24.5773 10.3483 24.5773H14.229C14.5721 24.5773 14.9011 24.7136 15.1437 24.9562C15.3862 25.1988 15.5225 25.5278 15.5225 25.8709C15.5225 26.2139 15.3862 26.543 15.1437 26.7855C14.9011 27.0281 14.5721 27.1644 14.229 27.1644H10.3483C9.31914 27.1644 8.33208 26.7556 7.60432 26.0278C6.87656 25.3 6.46771 24.313 6.46771 23.2838V5.17415Z" fill="white"/>
</svg>
