<svg width="29" height="40" viewBox="0 0 29 40" fill="none" xmlns="http://www.w3.org/2000/svg">
<path fill-rule="evenodd" clip-rule="evenodd" d="M6.01961 29.1292C6.13977 29.0087 6.28252 28.9131 6.43967 28.8479C6.59682 28.7827 6.7653 28.7491 6.93544 28.7491C7.10559 28.7491 7.27406 28.7827 7.43122 28.8479C7.58837 28.9131 7.73111 29.0087 7.85127 29.1292L14.6967 35.9772L21.5422 29.1292C21.785 28.8863 22.1145 28.7498 22.458 28.7498C22.8015 28.7498 23.1309 28.8863 23.3738 29.1292C23.6167 29.3721 23.7532 29.7015 23.7532 30.045C23.7532 30.3885 23.6167 30.7179 23.3738 30.9608L15.6125 38.7221C15.4924 38.8426 15.3496 38.9381 15.1925 39.0034C15.0353 39.0686 14.8669 39.1021 14.6967 39.1021C14.5266 39.1021 14.3581 39.0686 14.2009 39.0034C14.0438 38.9381 13.901 38.8426 13.7809 38.7221L6.01961 30.9608C5.89915 30.8407 5.80358 30.6979 5.73836 30.5408C5.67315 30.3836 5.63959 30.2151 5.63959 30.045C5.63959 29.8749 5.67315 29.7064 5.73836 29.5492C5.80358 29.3921 5.89915 29.2493 6.01961 29.1292Z" fill="white"/>
<path fill-rule="evenodd" clip-rule="evenodd" d="M14.6967 10.6418C15.0398 10.6418 15.3688 10.7781 15.6114 11.0207C15.854 11.2633 15.9903 11.5923 15.9903 11.9354V35.2192C15.9903 35.5623 15.854 35.8913 15.6114 36.1339C15.3688 36.3765 15.0398 36.5127 14.6967 36.5127C14.3537 36.5127 14.0247 36.3765 13.7821 36.1339C13.5395 35.8913 13.4032 35.5623 13.4032 35.2192V11.9354C13.4032 11.5923 13.5395 11.2633 13.7821 11.0207C14.0247 10.7781 14.3537 10.6418 14.6967 10.6418Z" fill="white"/>
<path fill-rule="evenodd" clip-rule="evenodd" d="M0.467712 4.17415C0.467712 3.14494 0.876564 2.15789 1.60432 1.43013C2.33208 0.702369 3.31914 0.293518 4.34835 0.293518H25.0451C26.0743 0.293518 27.0613 0.702369 27.7891 1.43013C28.5169 2.15789 28.9257 3.14494 28.9257 4.17415V22.2838C28.9257 23.313 28.5169 24.3 27.7891 25.0278C27.0613 25.7556 26.0743 26.1644 25.0451 26.1644H21.1644C20.8214 26.1644 20.4923 26.0281 20.2498 25.7855C20.0072 25.543 19.8709 25.2139 19.8709 24.8709C19.8709 24.5278 20.0072 24.1988 20.2498 23.9562C20.4923 23.7136 20.8214 23.5773 21.1644 23.5773H25.0451C25.3881 23.5773 25.7172 23.441 25.9597 23.1985C26.2023 22.9559 26.3386 22.6269 26.3386 22.2838V4.17415C26.3386 3.83108 26.2023 3.50207 25.9597 3.25948C25.7172 3.01689 25.3881 2.88061 25.0451 2.88061H4.34835C4.00528 2.88061 3.67626 3.01689 3.43367 3.25948C3.19109 3.50207 3.0548 3.83108 3.0548 4.17415V22.2838C3.0548 22.6269 3.19109 22.9559 3.43367 23.1985C3.67626 23.441 4.00528 23.5773 4.34835 23.5773H8.22898C8.57205 23.5773 8.90107 23.7136 9.14366 23.9562C9.38624 24.1988 9.52253 24.5278 9.52253 24.8709C9.52253 25.2139 9.38624 25.543 9.14366 25.7855C8.90107 26.0281 8.57205 26.1644 8.22898 26.1644H4.34835C3.31914 26.1644 2.33208 25.7556 1.60432 25.0278C0.876564 24.3 0.467712 23.313 0.467712 22.2838V4.17415Z" fill="white"/>
</svg>
