<svg width="50" height="50" viewBox="0 0 50 50" fill="none" xmlns="http://www.w3.org/2000/svg">
<path d="M38.0625 12.5C40.1667 17.0209 39.6875 22.3542 37.375 26.6875C35.4167 30.2084 32.6042 33.1875 30.2083 36.4584C29.1667 37.9167 28.125 39.4792 27.3542 41.1667C27.0833 41.7292 26.8958 42.3125 26.6875 42.8959C26.4792 43.4792 26.2917 44.0625 26.1042 44.6459C25.9167 45.1875 25.6875 45.8334 25 45.8334C24.1875 45.8334 23.9583 44.9167 23.7917 44.2917C23.2917 42.7709 22.7917 41.3125 22.0208 39.9167C21.1458 38.2709 20.0417 36.75 18.9167 35.2709L38.0625 12.5ZM19 17.5417L12.125 25.7084C13.3958 28.3959 15.2917 30.6875 17.1042 32.9792C17.5417 33.5 17.9792 34.0417 18.3958 34.6042L27.0833 24.3125L27 24.3334C23.9583 25.375 20.5833 23.8334 19.375 20.8334C19.2083 20.4792 19.0833 20.0625 19 19.6459C18.8854 18.9561 18.8854 18.2522 19 17.5625V17.5417ZM13.7083 9.62502L13.6875 9.64585C10.3125 13.9167 9.72916 19.8542 11.75 24.875L20.0625 15L19.9583 14.8959L13.7083 9.62502ZM29.625 4.91669L22.9167 12.8542L23 12.8334C25.7917 11.875 28.9167 13.0834 30.3333 15.625C30.6458 16.2084 30.8958 16.8334 30.9792 17.4584C31.1042 18.25 31.1458 18.8125 31 19.5834V19.6042L37.6667 11.6875C35.924 8.51958 33.0649 6.11345 29.6458 4.93752L29.625 4.91669ZM20.6042 14.3542L28.75 4.66669L28.6667 4.64585C27.4583 4.33335 26.2292 4.16669 25 4.16669C20.8958 4.16669 17.0208 5.93752 14.2708 8.97919L14.2292 9.00002L20.6042 14.3542Z" fill="white"/>
</svg>
